:version 1.10
:name ASF
:units
  mass 1
  length 1
  angle deg
:documentation
  ASF file generated by Kaydara
:root
  axis xyz
  order  tx ty tz rx ry rz
  position 0 0 0
  orientation 0 0 0
:bonedata
  begin
    id 1
    name LeftUpLegDummy
    direction 1 -2.30186e-007 -8.31532e-007
    length 2.93387
    axis 0 0 0 xyz
  end
  begin
    id 2
    name LeftUpLeg
    direction -1.82929e-007 -1 -1.48925e-009
    length 17.3336
    axis -3.48766 0.00143442 -0.000521554 xyz
    dof rx ry rz
  end
  begin
    id 3
    name LeftLeg
    direction -1.82929e-007 -1 -5.23717e-011
    length 14.9995
    axis 3.68178 -0.00654042 -0.000282425 xyz
    dof rx ry rz
  end
  begin
    id 4
    name LeftFoot
    direction 8.31532e-007 -4.54534e-011 1
    length 6.74421
    axis 1.87234e-006 4.66016e-005 -5.96866e-006 xyz
    dof rx ry rz
  end
  begin
    id 5
    name LeftToes
    direction 0.00818058 -0.00485161 0.999955
    length 3.85048
    axis 1.06247e-005 4.65869e-005 -5.96999e-006 xyz
    dof rx ry rz
  end
  begin
    id 6
    name SpineDummy
    direction -5.8607e-008 0.943407 -0.331637
    length 5.93572
    axis 0 0 0 xyz
  end
  begin
    id 7
    name Spine
    direction -1.04988e-007 0.999988 0.00495137
    length 10.1015
    axis -0.001389 0.000121417 6.61666e-006 xyz
    dof rx ry rz
  end
  begin
    id 8
    name Spine1
    direction 0 0 0
    length 0
    axis -0.001389 0.00012144 6.56766e-006 xyz
    dof rx ry rz
  end
  begin
    id 9
    name RightShoulderDummy
    direction -0.98348 0.17941 -0.0240696
    length 3.59882
    axis -0.001389 0.00012144 6.56766e-006 xyz
  end
  begin
    id 10
    name RightShoulder
    direction -0.978693 0.204882 0.0135597
    length 2.70001
    axis 0.215806 0.000203631 -0.00679732 xyz
    dof rx ry rz
  end
  begin
    id 11
    name RightArm
    direction -1 3.85509e-006 8.31394e-007
    length 10.2459
    axis -23.2009 -0.134239 -0.964098 xyz
    dof rx ry rz
  end
  begin
    id 12
    name RightForeArm
    direction -1 3.85569e-006 8.3129e-007
    length 8.16799
    axis -9.92322 0.0658061 0.17887 xyz
    dof rx ry rz
  end
  begin
    id 13
    name RightHand
    direction -0.992843 -0.0414604 0.112003
    length 5.28593
    axis -0.00960638 0.00330669 -0.185225 xyz
    dof rx ry rz
  end
  begin
    id 14
    name LeftShoulder1Dummy
    direction 0.983523 0.179172 -0.0240748
    length 3.59866
    axis -0.001389 0.00012144 6.56766e-006 xyz
  end
  begin
    id 15
    name LeftShoulder1
    direction 0.978627 0.205195 0.0135605
    length 2.70019
    axis -0.001389 0.00012144 6.57583e-006 xyz
    dof rx ry rz
  end
  begin
    id 16
    name LeftArm
    direction 1 3.51895e-006 -8.60188e-007
    length 10.2459
    axis -23.1894 0.134785 0.967513 xyz
    dof rx ry rz
  end
  begin
    id 17
    name LeftForeArm
    direction 1 3.51921e-006 -7.32029e-007
    length 8.16799
    axis -9.91835 -0.0656957 -0.177789 xyz
    dof rx ry rz
  end
  begin
    id 18
    name LeftHand
    direction 0.992938 -0.0411636 0.11126
    length 5.32135
    axis -0.00960237 -0.00340661 0.185177 xyz
    dof rx ry rz
  end
  begin
    id 19
    name HEadDummy
    direction 1.01974e-006 0.999861 -0.016675
    length 2.99946
    axis -0.001389 0.00012144 6.56766e-006 xyz
  end
  begin
    id 20
    name HEad
    direction -0.0222689 0.980941 0.193023
    length 5.12695
    axis -0.001389 0.00012144 6.56766e-006 xyz
    dof rx ry rz
  end
  begin
    id 21
    name RightUpLegDummy
    direction -1 2.30186e-007 8.31532e-007
    length 2.93387
    axis 0 0 0 xyz
  end
  begin
    id 22
    name RightUpLeg
    direction -1.82966e-007 -1 1.56832e-007
    length 17.3336
    axis -3.4909 -0.000906625 0.00028951 xyz
    dof rx ry rz
  end
  begin
    id 23
    name RightLeg
    direction -1.82786e-007 -1 -1.80317e-007
    length 14.9995
    axis 3.68513 0.0193739 -0.131021 xyz
    dof rx ry rz
  end
  begin
    id 24
    name RightFoot
    direction 8.31721e-007 -4.63324e-011 1
    length 6.74421
    axis 4.81691e-005 -0.120479 -0.188785 xyz
    dof rx ry rz
  end
  begin
    id 25
    name RightToes
    direction 0.00124746 -0.014064 0.9999
    length 3.85082
    axis 0.000481921 0.542163 -0.142575 xyz
    dof rx ry rz
  end
:hierarchy
  begin
    root LeftUpLegDummy SpineDummy RightUpLegDummy
    LeftUpLegDummy LeftUpLeg
    LeftUpLeg LeftLeg
    LeftLeg LeftFoot
    LeftFoot LeftToes
    SpineDummy Spine
    Spine Spine1
    Spine1 RightShoulderDummy LeftShoulder1Dummy HEadDummy
    RightShoulderDummy RightShoulder
    RightShoulder RightArm
    RightArm RightForeArm
    RightForeArm RightHand
    LeftShoulder1Dummy LeftShoulder1
    LeftShoulder1 LeftArm
    LeftArm LeftForeArm
    LeftForeArm LeftHand
    HEadDummy HEad
    RightUpLegDummy RightUpLeg
    RightUpLeg RightLeg
    RightLeg RightFoot
    RightFoot RightToes
  end

:SAMPLES-PER-SECOND 30
:FULLY-SPECIFIED
:DEGREES
163
root  2.03683 34.1552 -17.3338 2.61865 -64.0648 4.98371
LeftUpLeg  -14.2535 8.34584 2.82654
LeftLeg  29.9746 19.4776 9.35161
LeftFoot  -1.98966 -0.0156442 -0.900903
LeftToes  -6.33111 1.85109e-006 5.31342e-008
Spine  3.98513 -2.63198 4.20373
Spine1  7.04037 -5.81571 8.25449
RightShoulder  0.0763889 2.43506 9.01187
RightArm  -31.4629 -0.554381 61.0935
RightForeArm  26.4792 46.9363 10.8959
RightHand  2.18377 -16.0466 -15.0252
LeftShoulder1  0.0748365 -0.0450637 -5.00921
LeftArm  -1.36082 -21.7075 -79.3288
LeftForeArm  160.14 -44.2566 -169.747
LeftHand  -0.203788 -1.34574 16.9376
HEad  -9.23702 23.3954 -13.2891
RightUpLeg  -15.0713 -5.57915 -4.39414
RightLeg  18.9954 25.3739 6.70452
RightFoot  0.0525806 0.000186734 -0.0290352
RightToes  -33.4331 -0.168262 -0.275104
164
root  2.01611 34.1377 -17.121 1.56319 -65.7782 5.93833
LeftUpLeg  -14.5599 7.83248 2.77594
LeftLeg  32.2381 17.8829 9.48366
LeftFoot  -2.51207 -0.0227682 -1.03841
LeftToes  -4.53105 1.85109e-006 5.31342e-008
Spine  4.05035 -2.75821 4.1925
Spine1  7.11671 -6.10176 8.27592
RightShoulder  0.0755988 2.12873 9.06326
RightArm  -28.7632 -0.613517 62.7895
RightForeArm  26.7509 48.9884 11.7252
RightHand  2.14241 -16.0759 -14.7094
LeftShoulder1  0.0770537 -0.544886 -5.4048
LeftArm  -3.16165 -19.7276 -76.6018
LeftForeArm  160.297 -46.3021 -169.002
LeftHand  -0.240425 -1.57879 17.0203
HEad  -10.2429 24.5985 -14.4799
RightUpLeg  -15.2562 -4.81449 -5.02399
RightLeg  19.7338 26.1581 7.24181
RightFoot  -0.216414 -0.00101507 -0.16045
RightToes  -33.8937 -0.171368 -0.277874
165
root  2.02993 34.1084 -16.8643 0.593965 -67.5741 6.89636
LeftUpLeg  -14.9272 7.71038 3.02946
LeftLeg  34.25 14.7479 8.54674
LeftFoot  -2.70326 -0.0222142 -0.941474
LeftToes  -5.2539 1.85109e-006 5.31342e-008
Spine  4.10269 -2.87888 4.2229
Spine1  7.17911 -6.37815 8.38898
RightShoulder  0.0742874 1.83651 9.15851
RightArm  -26.1158 -1.36805 64.3487
RightForeArm  26.7529 50.4263 12.3499
RightHand  2.07956 -16.0207 -14.3223
LeftShoulder1  0.0805671 -0.766224 -5.71795
LeftArm  -4.89163 -17.2865 -74.0676
LeftForeArm  160.011 -49.5393 -167.695
LeftHand  -0.151459 -1.09299 15.5058
HEad  -11.4901 27.8451 -16.1594
RightUpLeg  -15.4062 -3.60871 -5.66983
RightLeg  19.9545 26.538 7.44369
RightFoot  -0.425294 -0.00238023 -0.26421
RightToes  -34.3159 -0.174742 -0.280815
166
root  2.08924 34.0854 -16.5611 -0.260896 -69.3164 7.78916
LeftUpLeg  -15.1318 7.65255 3.58727
LeftLeg  35.4777 11.1722 6.84489
LeftFoot  -2.22282 -0.0122701 -0.632478
LeftToes  -9.02281 1.85109e-006 5.31342e-008
Spine  4.17308 -2.98589 4.29353
Spine1  7.28675 -6.62993 8.58691
RightShoulder  0.0724588 1.56873 9.34392
RightArm  -23.8365 -2.75665 65.5495
RightForeArm  26.1872 51.3166 12.757
RightHand  2.04856 -15.939 -14.18
LeftShoulder1  0.081335 -0.807904 -5.94519
LeftArm  -6.56147 -14.7087 -71.8946
LeftForeArm  158.208 -54.2619 -165.426
LeftHand  -0.0296408 -0.283496 11.8565
HEad  -13.2981 32.7849 -18.6686
RightUpLeg  -15.643 -2.08228 -6.39266
RightLeg  20.0089 26.6371 7.49524
RightFoot  -0.482647 -0.00280063 -0.287797
RightToes  -35.0875 -0.180477 -0.285725
167
root  2.18282 34.0631 -16.2194 -1.61197 -70.9442 9.21915
LeftUpLeg  -15.144 7.71718 4.23944
LeftLeg  35.9731 9.29153 5.82147
LeftFoot  -2.12844 -0.00980489 -0.527821
LeftToes  -8.37588 1.85109e-006 5.31342e-008
Spine  4.22567 -3.06426 4.35605
Spine1  7.3722 -6.824 8.78163
RightShoulder  0.0699983 1.28998 9.46395
RightArm  -22.4432 -5.05661 66.5098
RightForeArm  26.3436 52.7341 13.4404
RightHand  1.96393 -16.2433 -13.3226
LeftShoulder1  0.0809739 -0.919219 -6.12624
LeftArm  -8.05309 -12.032 -69.9567
LeftForeArm  155.695 -60.3349 -161.544
LeftHand  0.0508414 0.730287 7.52335
HEad  -15.6845 38.6801 -21.8449
RightUpLeg  -16.0041 -0.649541 -7.31682
RightLeg  20.1759 26.6633 7.58201
RightFoot  -0.539094 -0.00235039 -0.308885
RightToes  -36.036 -0.187617 -0.291653
168
root  2.29481 34.0444 -15.8489 -3.46313 -72.1111 11.2003
LeftUpLeg  -15.037 7.88798 4.9395
LeftLeg  35.7644 10.6792 6.62167
LeftFoot  -1.08883 -0.00339536 -0.357334
LeftToes  -7.37035 1.85109e-006 5.31342e-008
Spine  4.24191 -3.17115 4.34219
Spine1  7.43489 -7.03814 8.78682
RightShoulder  0.065538 1.13892 9.60054
RightArm  -22.1418 -8.40369 67.286
RightForeArm  26.9388 54.968 14.618
RightHand  1.98711 -16.2261 -13.4974
LeftShoulder1  0.0797156 -0.578045 -6.1718
LeftArm  -8.19981 -10.1463 -68.4174
LeftForeArm  150.298 -68.2408 -153.27
LeftHand  0.0434453 0.884747 5.21151
HEad  -18.6098 44.487 -25.2431
RightUpLeg  -16.0911 1.53694 -8.49856
RightLeg  19.5605 25.4936 6.99217
RightFoot  -0.554891 -0.00438773 -0.290821
RightToes  -36.8019 -0.193453 -0.296353
169
root  2.43148 34.024 -15.4479 -5.4839 -72.8117 13.346
LeftUpLeg  -14.7877 8.24206 5.85668
LeftLeg  34.7385 13.0463 7.73714
LeftFoot  0.764826 -0.000601455 0.0901042
LeftToes  -8.08947 1.85109e-006 5.31342e-008
Spine  4.25389 -3.26072 4.27892
Spine1  7.5123 -7.20524 8.68236
RightShoulder  0.0598308 0.985029 9.7159
RightArm  -23.174 -12.3767 67.9562
RightForeArm  27.9986 57.8751 16.3757
RightHand  2.04847 -16.0869 -14.0452
LeftShoulder1  0.077792 -0.367469 -6.18949
LeftArm  -7.38896 -8.96433 -67.0063
LeftForeArm  133.73 -76.1298 -133.6
LeftHand  0.0530098 1.45094 3.79636
HEad  -21.5474 49.3535 -28.6205
RightUpLeg  -16.1071 3.95507 -9.87118
RightLeg  18.8187 23.7519 6.22864
RightFoot  -0.569438 -0.0068277 -0.265085
RightToes  -37.9103 -0.202009 -0.303016
170
root  2.59934 33.9956 -14.9974 -7.49359 -72.9908 15.4152
LeftUpLeg  -14.472 8.37625 6.98289
LeftLeg  33 14.2409 7.86166
LeftFoot  3.79444 -0.0325214 0.98175
LeftToes  -10.2891 1.85109e-006 5.31342e-008
Spine  4.28817 -3.44898 4.16159
Spine1  7.63635 -7.56523 8.45835
RightShoulder  0.0533821 0.795817 9.70858
RightArm  -25.2066 -16.3731 68.6991
RightForeArm  29.5157 61.1549 18.762
RightHand  2.09241 -15.9779 -14.4517
LeftShoulder1  0.0741279 -0.371506 -6.23307
LeftArm  -6.37497 -8.1531 -65.598
LeftForeArm  88.9283 -79.8655 -85.5364
LeftHand  0.0432481 1.96023 2.14996
HEad  -24.0927 52.8391 -31.4803
RightUpLeg  -16.2405 5.56622 -11.3732
RightLeg  18.7152 22.3089 5.83033
RightFoot  -0.697263 -0.0057733 -0.291295
RightToes  -39.3234 -0.213101 -0.311268
171
root  2.79483 33.9472 -14.5021 -9.03501 -72.8222 16.9675
LeftUpLeg  -14.2282 8.29215 8.30532
LeftLeg  31.0626 14.317 7.29477
LeftFoot  6.89383 -0.111527 1.85143
LeftToes  -12.2164 1.85109e-006 5.31342e-008
Spine  4.30476 -3.7321 4.01426
Spine1  7.72717 -8.1037 8.15432
RightShoulder  0.0470572 0.645076 9.4916
RightArm  -27.3213 -20.1716 69.396
RightForeArm  31.0774 64.764 22.0956
RightHand  2.37276 -16.2963 -16.0839
LeftShoulder1  0.070782 -0.480234 -6.35631
LeftArm  -5.19444 -7.37335 -64.2273
LeftForeArm  48.9147 -75.2123 -42.3141
LeftHand  0.0256729 2.08983 1.03411
HEad  -25.9058 55.1352 -33.2635
RightUpLeg  -16.1532 7.47353 -12.894
RightLeg  18.2854 20.2153 5.15194
RightFoot  -0.852615 -0.00499801 -0.30995
RightToes  -40.6489 -0.223687 -0.318758
172
root  3.01946 33.8792 -13.9529 -10.0945 -72.5662 18.0337
LeftUpLeg  -13.9528 8.10039 9.6912
LeftLeg  29.0885 14.8395 6.93236
LeftFoot  10.0486 -0.246741 2.80599
LeftToes  -14.5861 1.85109e-006 5.31342e-008
Spine  4.28476 -4.0145 3.85926
Spine1  7.74597 -8.62954 7.81691
RightShoulder  0.0418755 0.558015 9.07163
RightArm  -29.5879 -23.6864 69.9797
RightForeArm  33.9878 68.7739 27.1881
RightHand  2.75469 -16.7073 -18.2215
LeftShoulder1  0.0672488 -0.653774 -6.56358
LeftArm  -3.90817 -6.15348 -63.0009
LeftForeArm  36.0464 -67.7061 -25.6263
LeftHand  0.0183838 1.34223 1.19321
HEad  -27.2774 56.7779 -34.3766
RightUpLeg  -15.9736 9.78225 -14.4194
RightLeg  17.6415 17.5331 4.28816
RightFoot  -0.985966 -0.0059239 -0.298067
RightToes  -42.1252 -0.235679 -0.32681
173
root  3.26979 33.7882 -13.3446 -10.7705 -72.2791 18.7311
LeftUpLeg  -13.5829 8.09604 10.9869
LeftLeg  27.079 16.1911 6.87632
LeftFoot  14.1303 -0.533433 4.302
LeftToes  -17.6328 1.85109e-006 5.31342e-008
Spine  4.23168 -4.25768 3.69228
Spine1  7.71125 -9.06025 7.43204
RightShoulder  0.0396788 0.496876 8.55349
RightArm  -32.0869 -26.6039 70.3226
RightForeArm  39.7467 72.7027 34.7835
RightHand  2.98528 -17.1379 -19.2452
LeftShoulder1  0.0628351 -0.831622 -6.71366
LeftArm  -2.80482 -4.29885 -61.9728
LeftForeArm  31.9289 -60.9344 -18.5746
LeftHand  0.0126677 1.07702 0.971514
HEad  -28.5844 57.8743 -35.1789
RightUpLeg  -15.7781 12.5517 -15.991
RightLeg  16.9238 14.2105 3.30974
RightFoot  -1.07946 -0.00877334 -0.251292
RightToes  -43.9001 -0.250365 -0.336077
174
root  3.5548 33.6607 -12.6726 -11.1486 -71.9356 19.1015
LeftUpLeg  -13.3229 8.60476 11.97
LeftLeg  25.6711 18.2654 7.21014
LeftFoot  18.6188 -1.05019 6.40007
LeftToes  -20.1686 1.85109e-006 5.31342e-008
Spine  4.14173 -4.4622 3.5205
Spine1  7.60407 -9.40341 7.02289
RightShoulder  0.0385841 0.427434 8.14528
RightArm  -34.2022 -28.8159 70.034
RightForeArm  49.9343 76.2605 46.6726
RightHand  3.14659 -17.8273 -19.4892
LeftShoulder1  0.0575412 -0.851983 -6.80128
LeftArm  -1.94278 -1.93091 -61.1959
LeftForeArm  30.1338 -55.4119 -14.8601
LeftHand  0.00402555 1.28119 -0.00989365
HEad  -29.7027 58.5268 -35.677
RightUpLeg  -15.621 15.5262 -17.612
RightLeg  16.4105 10.5049 2.36022
RightFoot  -1.30881 -0.0106731 -0.213347
RightToes  -45.6369 -0.265006 -0.3447
175
root  3.8642 33.4916 -11.9243 -10.6057 -71.3282 18.4301
LeftUpLeg  -13.4018 9.56528 12.6361
LeftLeg  25.4948 19.8555 7.73844
LeftFoot  21.4085 -1.52364 8.0476
LeftToes  -23.0976 1.85109e-006 5.31342e-008
Spine  4.04453 -4.62128 3.43841
Spine1  7.47705 -9.64977 6.76918
RightShoulder  0.0383948 0.453615 7.95686
RightArm  -36.1201 -30.4644 68.8894
RightForeArm  68.8351 79.0374 66.8531
RightHand  3.28605 -17.9431 -20.2182
LeftShoulder1  0.0511918 -0.820012 -6.73482
LeftArm  -0.957318 0.837979 -60.7576
LeftForeArm  29.2183 -51.1621 -12.6778
LeftHand  0.00290834 1.12941 -0.254951
HEad  -30.4525 58.6051 -35.8938
RightUpLeg  -15.3642 17.548 -19.0239
RightLeg  16.28 7.46763 1.66471
RightFoot  -1.65759 -0.0117276 -0.181708
RightToes  -47.2292 -0.278653 -0.352213
176
root  4.20767 33.2831 -11.0864 -9.38957 -70.576 16.9724
LeftUpLeg  -13.8922 11.8674 12.6896
LeftLeg  26.4918 19.5175 7.99523
LeftFoot  20.7491 -1.41804 7.73431
LeftToes  -28.8895 1.85109e-006 5.31342e-008
Spine  3.9647 -4.64741 3.44418
Spine1  7.38358 -9.62892 6.67557
RightShoulder  0.0387928 0.567232 7.85847
RightArm  -38.1675 -31.4101 67.1034
RightForeArm  96.2291 79.8519 94.7065
RightHand  3.14212 -17.8107 -19.4799
LeftShoulder1  0.0441407 -0.823438 -6.49997
LeftArm  0.100376 3.96336 -60.5716
LeftForeArm  29.2221 -48.5929 -11.5531
LeftHand  0.00357306 0.999132 -0.561815
HEad  -30.9105 57.9841 -35.8782
RightUpLeg  -15.0802 17.8724 -20.2073
RightLeg  16.5969 5.9449 1.36099
RightFoot  -2.00205 -0.0110757 -0.16885
RightToes  -48.8015 -0.292329 -0.359256
